<?xml version="1.0" encoding="utf-8"?>
<!-- Generator: Adobe Illustrator 18.0.0, SVG Export Plug-In . SVG Version: 6.00 Build 0)  -->
<!DOCTYPE svg PUBLIC "-//W3C//DTD SVG 1.1//EN" "http://www.w3.org/Graphics/SVG/1.1/DTD/svg11.dtd">
<svg version="1.1" id="Layer_1" xmlns="http://www.w3.org/2000/svg" xmlns:xlink="http://www.w3.org/1999/xlink" x="0px" y="0px"
	 viewBox="0 0 60 60" enable-background="new 0 0 60 60" xml:space="preserve">
<g>
	<g>
		<rect x="7.1" y="8.1" fill="#2394CC" width="0.9" height="42.4"/>
	</g>
	<g>
		<rect x="7.1" y="49.7" fill="#2394CC" width="52" height="0.8"/>
	</g>
	<g>
		<g>
			<path fill="none" stroke="#2394CC" stroke-miterlimit="10" d="M12.8,16.8c0,4.7,0.8,14,8,20.6c8.5,7.8,23.8,7.7,30.2,7.2"/>
			<g>
				<polygon fill="#2394CC" points="10.9,17.3 13,13.9 14.9,17.5 				"/>
			</g>
			<g>
				<polygon fill="#2394CC" points="50.6,46.6 53.8,44.3 50.2,42.7 				"/>
			</g>
		</g>
	</g>
	<g>
		<path fill="#2394CC" d="M21.9,10.8c0.2,0.2,0.4,0.6,0.4,0.9c0,0.4-0.1,0.7-0.4,0.9c-0.2,0.2-0.6,0.4-0.9,0.4
			c-0.4,0-0.7-0.1-0.9-0.4c-0.2-0.2-0.4-0.6-0.4-0.9c0-0.4,0.1-0.7,0.4-0.9c0.2-0.2,0.5-0.4,0.9-0.4C21.3,10.4,21.6,10.5,21.9,10.8z
			 M19.8,14.1h2.4v8.2h-2.4V14.1z"/>
		<path fill="#2394CC" d="M27.4,14.9h6.8v1.6h-6.8V14.9z M27.4,18.2h6.8v1.6h-6.8V18.2z"/>
	</g>
	<g>
		<path fill="#2394CC" d="M41.6,3.1l2.2-0.8l2.4,0v10.7h-2.4V4.3l-2.2,0.8V3.1z"/>
	</g>
	<g>
		<path fill="#2394CC" d="M46.8,22v11.3h-2.4v-1.2c-0.3,0.4-0.7,0.8-1.1,1c-0.4,0.2-0.9,0.3-1.5,0.3c-0.8,0-1.5-0.2-2.1-0.5
			c-0.6-0.4-1-0.8-1.4-1.5c-0.3-0.6-0.5-1.4-0.5-2.2c0-0.8,0.2-1.6,0.5-2.2c0.3-0.6,0.8-1.1,1.4-1.5c0.6-0.3,1.3-0.5,2-0.5
			c1.2,0,2.1,0.4,2.7,1.3V22H46.8z M43.9,30.9c0.4-0.4,0.6-1,0.6-1.6c0-0.7-0.2-1.2-0.6-1.6c-0.4-0.4-0.9-0.6-1.5-0.6
			c-0.6,0-1.1,0.2-1.5,0.6c-0.4,0.4-0.6,1-0.6,1.6c0,0.7,0.2,1.2,0.6,1.6c0.4,0.4,0.9,0.6,1.5,0.6C43,31.5,43.5,31.3,43.9,30.9z"/>
	</g>
	<g>
		<rect x="37.1" y="16.3" fill="#2394CC" width="17.1" height="1.7"/>
	</g>
	<g>
		<path fill="#2394CC" d="M53.4,24.5v1.1h-4.5v-0.9l2.2-2.3c0.2-0.2,0.4-0.4,0.5-0.6c0.1-0.2,0.2-0.4,0.2-0.5c0-0.2-0.1-0.3-0.2-0.4
			s-0.3-0.2-0.6-0.2s-0.5,0.1-0.8,0.2s-0.6,0.3-0.8,0.5l-0.5-1c0.8-0.6,1.6-0.9,2.4-0.9c0.4,0,0.8,0.1,1.1,0.2
			c0.3,0.1,0.5,0.3,0.7,0.5c0.2,0.2,0.3,0.5,0.3,0.8c0,0.3-0.1,0.6-0.3,0.9c-0.2,0.3-0.5,0.7-0.8,1l-1.4,1.4H53.4z"/>
	</g>
	<g>
		<path fill="#2394CC" d="M25.8,54.5c0.2,0.1,0.3,0.2,0.4,0.4c0.1,0.2,0.2,0.4,0.2,0.6c0,0.2-0.1,0.4-0.2,0.6
			c-0.1,0.2-0.3,0.3-0.5,0.4c-0.2,0.1-0.4,0.2-0.7,0.2h-1v-2.4h1C25.4,54.3,25.6,54.4,25.8,54.5z M25.5,56.2
			c0.1-0.1,0.2-0.1,0.2-0.3c0.1-0.1,0.1-0.2,0.1-0.4c0-0.1,0-0.3-0.1-0.4c-0.1-0.1-0.1-0.2-0.3-0.3c-0.1-0.1-0.2-0.1-0.4-0.1h-0.5
			v1.5h0.5C25.3,56.3,25.4,56.2,25.5,56.2z"/>
		<path fill="#2394CC" d="M26.8,54.3h0.5v2.4h-0.5V54.3z"/>
		<path fill="#2394CC" d="M29.1,54.8c-0.1,0-0.3-0.1-0.4-0.1c-0.1,0-0.2,0-0.2,0.1c-0.1,0-0.1,0.1-0.1,0.1c0,0.1,0,0.1,0.1,0.2
			c0.1,0,0.2,0.1,0.4,0.1c0.2,0,0.3,0.1,0.4,0.1c0.1,0,0.2,0.1,0.3,0.2c0.1,0.1,0.1,0.2,0.1,0.4c0,0.2,0,0.3-0.1,0.4
			c-0.1,0.1-0.2,0.2-0.3,0.2c-0.1,0.1-0.3,0.1-0.5,0.1c-0.2,0-0.4,0-0.6-0.1c-0.2-0.1-0.3-0.2-0.5-0.3l0.2-0.4
			c0.1,0.1,0.3,0.2,0.4,0.3c0.2,0.1,0.3,0.1,0.4,0.1c0.1,0,0.2,0,0.3-0.1c0.1,0,0.1-0.1,0.1-0.2c0-0.1,0-0.1-0.1-0.2
			c0,0-0.1-0.1-0.2-0.1c-0.1,0-0.2-0.1-0.3-0.1c-0.2,0-0.3-0.1-0.4-0.1c-0.1,0-0.2-0.1-0.3-0.2c-0.1-0.1-0.1-0.2-0.1-0.4
			c0-0.1,0-0.3,0.1-0.4c0.1-0.1,0.2-0.2,0.3-0.2c0.1-0.1,0.3-0.1,0.5-0.1c0.2,0,0.3,0,0.5,0.1s0.3,0.1,0.4,0.2L29.4,55
			C29.3,54.9,29.2,54.9,29.1,54.8z"/>
		<path fill="#2394CC" d="M29.8,54.3h2v0.5h-0.7v1.9h-0.5v-1.9h-0.7V54.3z"/>
		<path fill="#2394CC" d="M33.6,56.7l-0.2-0.5h-1.1l-0.2,0.5h-0.6l1-2.4h0.6l1,2.4H33.6z M32.5,55.8h0.8l-0.4-0.9L32.5,55.8z"/>
		<path fill="#2394CC" d="M36.1,54.3h0.5v2.4h-0.5L35,55.2v1.5h-0.5v-2.4H35l1.2,1.5V54.3z"/>
		<path fill="#2394CC" d="M38.6,54.8c-0.1-0.1-0.2-0.1-0.3-0.1c-0.1,0-0.3,0-0.4,0.1c-0.1,0.1-0.2,0.2-0.3,0.3
			c-0.1,0.1-0.1,0.2-0.1,0.4c0,0.1,0,0.3,0.1,0.4c0.1,0.1,0.2,0.2,0.3,0.3c0.1,0.1,0.2,0.1,0.4,0.1c0.1,0,0.2,0,0.3-0.1
			c0.1-0.1,0.2-0.1,0.3-0.2l0.3,0.3c-0.1,0.1-0.3,0.2-0.5,0.3c-0.2,0.1-0.3,0.1-0.5,0.1c-0.2,0-0.4-0.1-0.6-0.2
			c-0.2-0.1-0.3-0.3-0.5-0.4C37,56,37,55.7,37,55.5c0-0.2,0.1-0.4,0.2-0.6c0.1-0.2,0.3-0.3,0.5-0.4c0.2-0.1,0.4-0.2,0.6-0.2
			c0.2,0,0.3,0,0.5,0.1c0.2,0.1,0.3,0.2,0.4,0.3l-0.3,0.4C38.8,55,38.7,54.9,38.6,54.8z"/>
		<path fill="#2394CC" d="M39.5,54.3h1.8v0.4h-1.3v0.5h1.2v0.4h-1.2v0.5h1.3v0.4h-1.9V54.3z"/>
	</g>
	<g>
		<path fill="#2394CC" d="M0.9,37.8v-0.5h2.4v0.5H0.9z"/>
		<path fill="#2394CC" d="M0.9,35.1v-0.5h2.4v0.5l-1.5,1.2h1.5v0.5H0.9v-0.5l1.5-1.2H0.9z"/>
		<path fill="#2394CC" d="M0.9,34.3v-2h0.5v0.7h1.9v0.5H1.4v0.7H0.9z"/>
		<path fill="#2394CC" d="M0.9,32.1v-1.8h0.4v1.3h0.5v-1.1h0.4v1.1h0.5v-1.3h0.4v1.8H0.9z"/>
		<path fill="#2394CC" d="M0.9,28.2v-0.5h2.4v0.5l-1.5,1.2h1.5v0.5H0.9v-0.5l1.5-1.2H0.9z"/>
		<path fill="#2394CC" d="M1.4,25.9c0,0.1-0.1,0.3-0.1,0.4c0,0.1,0,0.2,0.1,0.2c0,0.1,0.1,0.1,0.2,0.1c0.1,0,0.1,0,0.2-0.1
			c0-0.1,0.1-0.2,0.1-0.4C1.9,26,2,25.8,2,25.7c0-0.1,0.1-0.2,0.2-0.3c0.1-0.1,0.2-0.1,0.4-0.1c0.2,0,0.3,0,0.4,0.1
			c0.1,0.1,0.2,0.2,0.3,0.3c0.1,0.1,0.1,0.3,0.1,0.5c0,0.2,0,0.4-0.1,0.6C3.2,27,3.1,27.2,3,27.3l-0.4-0.2c0.1-0.1,0.2-0.3,0.3-0.4
			c0.1-0.2,0.1-0.3,0.1-0.4c0-0.1,0-0.2-0.1-0.3c0-0.1-0.1-0.1-0.2-0.1c-0.1,0-0.1,0-0.2,0.1c0,0-0.1,0.1-0.1,0.2
			c0,0.1-0.1,0.2-0.1,0.3c0,0.2-0.1,0.3-0.1,0.4c0,0.1-0.1,0.2-0.2,0.3c-0.1,0.1-0.2,0.1-0.4,0.1c-0.1,0-0.3,0-0.4-0.1
			C1.1,27,1,26.9,1,26.7c-0.1-0.1-0.1-0.3-0.1-0.5c0-0.2,0-0.3,0.1-0.5c0-0.2,0.1-0.3,0.2-0.4l0.4,0.2C1.5,25.7,1.5,25.8,1.4,25.9z"
			/>
		<path fill="#2394CC" d="M0.9,25v-0.5h2.4V25H0.9z"/>
		<path fill="#2394CC" d="M0.9,24.1v-2h0.5v0.7h1.9v0.5H1.4v0.7H0.9z"/>
		<path fill="#2394CC" d="M0.9,19.8l1.6,0.9h0.8v0.5H2.6l-1.6,0.9v-0.5L2,21l-1.1-0.6V19.8z"/>
	</g>
</g>
</svg>
